<svg width="29" height="24" viewBox="0 0 29 24" fill="none" xmlns="http://www.w3.org/2000/svg">
<path d="M22.2231 4.78782H22.3112L20.7883 8.94168H7.54328C5.59011 8.94168 4.18301 10.8156 4.72779 12.6912L5.32459 14.746L3.67878 14.52L3.67879 14.52L3.67089 14.519C2.82923 14.4125 2.14916 13.7809 1.98099 12.9492L0.80993 7.15693C0.562336 5.93227 1.49856 4.78782 2.748 4.78782H22.2231Z" stroke="#111111" stroke-width="1.5"/>
<path d="M19.8383 11.5326L18.1974 16.0081L18.0209 16.4894L8.13463 15.1319L7.21586 11.9686L7.21586 11.9686C7.15251 11.7505 7.31612 11.5326 7.54325 11.5326H19.8383ZM17.0571 20.3962H18.7099L19.1242 21.1126C19.2457 21.3226 19.3154 21.5661 19.3154 21.828C19.3154 22.6188 18.6743 23.2599 17.8836 23.2599C17.0928 23.2599 16.4518 22.6188 16.4518 21.828C16.4518 21.5661 16.5214 21.3226 16.6429 21.1126L17.0571 20.3962ZM3.72772 20.3962H4.55417L4.9684 21.1126C5.08984 21.3226 5.15953 21.5661 5.15953 21.828C5.15953 22.6188 4.51848 23.2599 3.72772 23.2599C2.93696 23.2599 2.2959 22.6188 2.2959 21.828C2.2959 21.0373 2.93694 20.3962 3.72772 20.3962Z" stroke="#111111" stroke-width="1.5"/>
</svg>
