<svg width="24" height="24" viewBox="0 0 24 24" fill="none" xmlns="http://www.w3.org/2000/svg">
<path fill-rule="evenodd" clip-rule="evenodd" d="M-2.04037e-09 12.4555C-3.04913e-09 18.1965 4.17081 22.9703 9.6257 23.9384L9.6257 15.5983L6.73799 15.5983L6.73799 12.3911L9.6257 12.3911L9.6257 9.82468C9.6257 6.93785 11.4863 5.3347 14.118 5.3347C14.9516 5.3347 15.8506 5.46268 16.6842 5.59066L16.6842 8.54197L15.2086 8.54197C13.7965 8.54197 13.476 9.24731 13.476 10.1461L13.476 12.3911L16.5562 12.3911L16.0431 15.5983L13.476 15.5983L13.476 23.9384C18.9309 22.9703 23.1017 18.1975 23.1017 12.4555C23.1017 6.06891 17.9038 0.84375 11.5508 0.84375C5.19788 0.84375 -9.18139e-10 6.06891 -2.04037e-09 12.4555Z" fill="#EFEBE3"/>
</svg>
