<svg width="24" height="23" viewBox="0 0 24 23" fill="none" xmlns="http://www.w3.org/2000/svg">
<path fill-rule="evenodd" clip-rule="evenodd" d="M7.41705 0.635415C8.60048 0.580951 8.97781 0.568848 11.9924 0.568848C15.007 0.568848 15.3843 0.581959 16.5667 0.635415C17.7492 0.68887 18.5563 0.877476 19.2625 1.1508C20.002 1.43018 20.6729 1.8669 21.2278 2.43171C21.7928 2.98543 22.2287 3.65513 22.5071 4.39544C22.7815 5.10145 22.9692 5.90832 23.0237 7.08837C23.0782 8.27347 23.0903 8.65068 23.0903 11.6633C23.0903 14.677 23.0771 15.0542 23.0237 16.2373C22.9702 17.4173 22.7815 18.2242 22.5071 18.9302C22.2287 19.6706 21.7921 20.3414 21.2278 20.896C20.6729 21.4608 20.002 21.8965 19.2625 22.1749C18.5563 22.4492 17.7492 22.6368 16.5687 22.6913C15.3843 22.7457 15.007 22.7578 11.9924 22.7578C8.97781 22.7578 8.60048 22.7447 7.41705 22.6913C6.23664 22.6378 5.42952 22.4492 4.72329 22.1749C3.98268 21.8965 3.31167 21.46 2.75695 20.896C2.19236 20.3419 1.75544 19.6714 1.47666 18.9312C1.20325 18.2252 1.0156 17.4183 0.961118 16.2383C0.906638 15.0532 0.894531 14.676 0.894531 11.6633C0.894531 8.64967 0.907647 8.27246 0.961118 7.09039C1.01459 5.90832 1.20325 5.10145 1.47666 4.39544C1.75585 3.65521 2.1931 2.98474 2.75796 2.4307C3.31189 1.8664 3.98223 1.42962 4.72229 1.1508C5.42851 0.877476 6.23563 0.689878 7.41604 0.635415H7.41705ZM16.4769 2.63242C15.3066 2.57897 14.9555 2.56787 11.9924 2.56787C9.02927 2.56787 8.67817 2.57897 7.50785 2.63242C6.4253 2.68184 5.83813 2.86238 5.44667 3.01468C4.92911 3.2164 4.55884 3.45543 4.17042 3.84374C3.80222 4.20184 3.51885 4.63778 3.34111 5.11961C3.18876 5.51094 3.00817 6.09794 2.95873 7.18015C2.90526 8.35012 2.89416 8.70111 2.89416 11.6633C2.89416 14.6256 2.90526 14.9766 2.95873 16.1465C3.00817 17.2287 3.18876 17.8157 3.34111 18.2071C3.51867 18.6882 3.80217 19.1249 4.17042 19.4829C4.52858 19.8511 4.96543 20.1345 5.44667 20.312C5.83813 20.4643 6.4253 20.6448 7.50785 20.6943C8.67817 20.7477 9.02826 20.7588 11.9924 20.7588C14.9565 20.7588 15.3066 20.7477 16.4769 20.6943C17.5595 20.6448 18.1467 20.4643 18.5381 20.312C19.0557 20.1103 19.4259 19.8712 19.8144 19.4829C20.1826 19.1249 20.4661 18.6882 20.6437 18.2071C20.796 17.8157 20.9766 17.2287 21.0261 16.1465C21.0795 14.9766 21.0906 14.6256 21.0906 11.6633C21.0906 8.70111 21.0795 8.35012 21.0261 7.18015C20.9766 6.09794 20.796 5.51094 20.6437 5.11961C20.4419 4.6022 20.2028 4.23205 19.8144 3.84374C19.4561 3.47568 19.0201 3.1924 18.5381 3.01468C18.1467 2.86238 17.5595 2.68184 16.4769 2.63242V2.63242ZM10.5749 15.0835C11.3665 15.4129 12.248 15.4574 13.0688 15.2093C13.8896 14.9612 14.5988 14.4359 15.0752 13.7231C15.5516 13.0104 15.7657 12.1544 15.681 11.3014C15.5962 10.4483 15.2178 9.65117 14.6105 9.04605C14.2233 8.65923 13.7552 8.36304 13.2397 8.17881C12.7243 7.99457 12.1744 7.92687 11.6297 7.98059C11.085 8.0343 10.5589 8.20809 10.0894 8.48944C9.61993 8.77078 9.21868 9.1527 8.91456 9.60768C8.61043 10.0627 8.411 10.5794 8.33062 11.1207C8.25024 11.662 8.29091 12.2143 8.44969 12.738C8.60848 13.2617 8.88144 13.7437 9.24892 14.1492C9.6164 14.5548 10.0693 14.8739 10.5749 15.0835ZM7.95883 7.63099C8.48852 7.10146 9.11736 6.68141 9.80944 6.39483C10.5015 6.10825 11.2433 5.96074 11.9924 5.96074C12.7415 5.96074 13.4833 6.10824 14.1753 6.39483C14.8674 6.68141 15.4963 7.10146 16.026 7.63099C16.5557 8.16053 16.9758 8.78918 17.2625 9.48105C17.5492 10.1729 17.6967 10.9145 17.6967 11.6633C17.6967 12.4122 17.5492 13.1538 17.2625 13.8456C16.9758 14.5375 16.5557 15.1661 16.026 15.6957C14.9562 16.7651 13.5053 17.3659 11.9924 17.3659C10.4795 17.3659 9.02859 16.7651 7.95883 15.6957C6.88906 14.6262 6.28807 13.1758 6.28807 11.6633C6.28807 10.1509 6.88906 8.70044 7.95883 7.63099V7.63099ZM18.9619 6.81C19.0931 6.68622 19.1982 6.53736 19.2709 6.37225C19.3436 6.20713 19.3824 6.02912 19.385 5.84875C19.3876 5.66837 19.354 5.4893 19.2862 5.32214C19.2184 5.15498 19.1177 5.00312 18.9901 4.87557C18.8625 4.74801 18.7106 4.64734 18.5434 4.57952C18.3761 4.51171 18.197 4.47812 18.0166 4.48075C17.8362 4.48338 17.6581 4.52217 17.4929 4.59483C17.3278 4.66749 17.1789 4.77254 17.055 4.90377C16.8142 5.15897 16.6824 5.49795 16.6875 5.84875C16.6926 6.19954 16.8343 6.53453 17.0824 6.78261C17.3306 7.03069 17.6657 7.17232 18.0166 7.17743C18.3675 7.18254 18.7066 7.05074 18.9619 6.81V6.81Z" fill="#EFEBE3"/>
</svg>
