<svg width="24" height="24" viewBox="0 0 24 24" fill="none" xmlns="http://www.w3.org/2000/svg">
<path d="M12.4376 0.842773C6.05812 0.842773 0.886719 6.01261 0.886719 12.3901C0.886719 18.7676 6.05812 23.9374 12.4376 23.9374C18.817 23.9374 23.9884 18.7676 23.9884 12.3901C23.9884 6.01261 18.817 0.842773 12.4376 0.842773ZM9.61001 17.1762H7.27096V9.65122H9.61001V17.1762ZM8.42605 8.72743C7.68727 8.72743 7.2096 8.20419 7.2096 7.55706C7.2096 6.8967 7.70171 6.3891 8.45613 6.3891C9.21054 6.3891 9.67257 6.8967 9.68701 7.55706C9.68701 8.20419 9.21054 8.72743 8.42605 8.72743ZM18.1528 17.1762H15.8138V13.006C15.8138 12.0353 15.4745 11.3761 14.6286 11.3761C13.9825 11.3761 13.5987 11.8224 13.429 12.2518C13.3664 12.4045 13.3508 12.621 13.3508 12.8364V17.175H11.0105V12.0509C11.0105 11.1115 10.9805 10.326 10.9492 9.65001H12.9814L13.0885 10.6953H13.1354C13.4434 10.2045 14.1979 9.48041 15.46 9.48041C16.9989 9.48041 18.1528 10.5113 18.1528 12.7269V17.1762Z" fill="#EFEBE3"/>
</svg>
