<svg width="25" height="25" viewBox="0 0 25 25" fill="none" xmlns="http://www.w3.org/2000/svg">
<g clip-path="url(#clip0_2_51)">
<path d="M23.739 22.325L17.77 16.356C19.3966 14.3666 20.1964 11.8281 20.0039 9.26557C19.8113 6.70304 18.6412 4.31254 16.7356 2.58853C14.83 0.864519 12.3346 -0.0610992 9.76565 0.00313259C7.1967 0.0673644 4.75071 1.11653 2.93362 2.93362C1.11653 4.75071 0.0673644 7.1967 0.00313259 9.76565C-0.0610992 12.3346 0.864519 14.83 2.58853 16.7356C4.31254 18.6412 6.70304 19.8113 9.26557 20.0039C11.8281 20.1964 14.3666 19.3966 16.356 17.77L22.325 23.739C22.5136 23.9212 22.7662 24.022 23.0284 24.0197C23.2906 24.0174 23.5414 23.9122 23.7268 23.7268C23.9122 23.5414 24.0174 23.2906 24.0197 23.0284C24.022 22.7662 23.9212 22.5136 23.739 22.325ZM10.032 18.032C8.44976 18.032 6.90304 17.5628 5.58745 16.6838C4.27185 15.8047 3.24647 14.5553 2.64097 13.0935C2.03547 11.6317 1.87704 10.0231 2.18573 8.47129C2.49441 6.91944 3.25633 5.49397 4.37515 4.37515C5.49397 3.25633 6.91944 2.49441 8.47129 2.18573C10.0231 1.87704 11.6317 2.03547 13.0935 2.64097C14.5553 3.24647 15.8047 4.27185 16.6838 5.58745C17.5628 6.90304 18.032 8.44976 18.032 10.032C18.0296 12.153 17.186 14.1865 15.6862 15.6862C14.1865 17.186 12.153 18.0296 10.032 18.032Z" fill="black"/>
</g>
<defs>
<clipPath id="clip0_2_51">
<rect width="24.0197" height="24.0197" fill="white"/>
</clipPath>
</defs>
</svg>
