<svg width="28" height="28" viewBox="0 0 28 28" fill="none" xmlns="http://www.w3.org/2000/svg">
<mask id="mask0_4_1435" style="mask-type:luminance" maskUnits="userSpaceOnUse" x="0" y="0" width="28" height="28">
<path d="M0.785156 0H27.9158V27.1224H0.785156V0Z" fill="white"/>
</mask>
<g mask="url(#mask0_4_1435)">
<path d="M27.3512 7.35439C27.1976 6.80655 26.8984 6.31057 26.4853 5.91916C26.0606 5.51572 25.5401 5.22713 24.9728 5.08063C22.8498 4.52123 14.3444 4.52123 14.3444 4.52123C10.7986 4.4809 7.2536 4.65828 3.72953 5.05238C3.16226 5.2097 2.64268 5.50474 2.21699 5.91125C1.79873 6.31357 1.49577 6.80968 1.33751 7.35326C0.957334 9.40071 0.772619 11.4796 0.785854 13.562C0.772289 15.6425 0.956551 17.7208 1.33751 19.7708C1.49238 20.3121 1.79421 20.806 2.2136 21.2049C2.633 21.6038 3.15526 21.892 3.72953 22.0445C5.88076 22.6028 14.3444 22.6028 14.3444 22.6028C17.8947 22.6432 21.4442 22.4658 24.9728 22.0717C25.5401 21.9252 26.0606 21.6366 26.4853 21.2331C26.8982 20.8418 27.1971 20.3457 27.3501 19.7979C27.7402 17.7512 27.9299 15.6715 27.9165 13.588C27.9458 11.4958 27.7564 9.40615 27.3512 7.35326V7.35439ZM11.6404 17.4315V9.69369L18.7169 13.5631L11.6404 17.4315Z" fill="#EFEBE3"/>
</g>
</svg>
